<?xml version="1.0" encoding="UTF-8" standalone="no"?>
<svg
   width="1270.0094"
   height="376.30573"
   viewBox="0 0 1270.0094 376.30573"
   version="1.1"
   id="svg53"
   sodipodi:docname="77cedf82edb70437b012936aa8b133a2.svg"
   xmlns:inkscape="http://www.inkscape.org/namespaces/inkscape"
   xmlns:sodipodi="http://sodipodi.sourceforge.net/DTD/sodipodi-0.dtd"
   xmlns="http://www.w3.org/2000/svg"
   xmlns:svg="http://www.w3.org/2000/svg">
  <defs
     id="defs57" />
  <sodipodi:namedview
     id="namedview55"
     pagecolor="#ffffff"
     bordercolor="#666666"
     borderopacity="1.0"
     inkscape:pageshadow="2"
     inkscape:pageopacity="0.0"
     inkscape:pagecheckerboard="0" />
  <!-- Generator: Sketch 62 (91390) - https://sketch.com -->
  <title
     id="title2">Download_Android_APK 2</title>
  <desc
     id="desc4">Created with Sketch.</desc>
  <g
     id="Page-1"
     stroke="none"
     stroke-width="1"
     fill="none"
     fill-rule="evenodd"
     transform="translate(0.00471773,0.00471773)">
    <g
       id="Download_Android_APK"
       fill-rule="nonzero">
      <path
         d="M 1222.963,376.2987 H 47.037037 C 34.523523,376.42335 22.485508,371.50848 13.636661,362.65963 4.7878141,353.81079 -0.12705061,341.77277 -0.00240337,329.25926 V 47.037037 C -0.12705061,34.523523 4.7878141,22.485508 13.636661,13.636661 22.485508,4.7878141 34.523523,-0.12705061 47.037037,-0.00240337 H 1222.963 c 12.5135,-0.12464724 24.5515,4.79021747 33.4003,13.63906437 8.8489,8.848847 13.7638,20.886862 13.6391,33.400376 V 329.25926 c 0.1247,12.51351 -4.7902,24.55153 -13.6391,33.40037 -8.8488,8.84885 -20.8868,13.76372 -33.4003,13.63907 z"
         id="Path"
         fill="#3ddc84" />
      <g
         id="Group"
         transform="translate(387.58519,83.725926)"
         fill="#ffffff">
        <g
           transform="translate(10.348148)"
           id="g22">
          <path
             d="M 0,58.325926 V 3.762963 h 15.992593 c 4.682107,-0.2077747 9.304763,1.112984 13.17037,3.7629629 3.739775,2.169281 6.701944,5.4605791 8.466667,9.4074071 2.019879,4.421985 2.985963,9.252403 2.822222,14.111111 v 2.822223 c 0.06568,4.850167 -0.896142,9.659296 -2.822222,14.111111 -1.848167,4.202489 -5.204919,7.559241 -9.407408,9.407407 -4.119986,1.925284 -8.623243,2.890267 -13.17037,2.822222 C 15.051852,58.325926 0,58.325926 0,58.325926 Z M 9.4074074,11.288889 V 50.8 h 6.5851856 c 4.246803,0.0364 8.32438,-1.662594 11.288889,-4.703704 2.903326,-3.74185 4.251224,-8.459495 3.762962,-13.17037 V 30.103704 C 31.380887,25.113706 30.057898,20.152495 27.281482,15.992593 24.5753,12.590986 20.31347,10.815224 15.992593,11.288889 Z"
             id="Shape" />
          <path
             d="m 47.977778,37.62963 c 0.08367,-3.526395 0.718503,-7.017992 1.881481,-10.348148 1.673734,-2.920892 3.912319,-5.479276 6.585185,-7.525926 3.105956,-1.916886 6.699061,-2.896823 10.348149,-2.822223 5.040365,-0.334164 9.936237,1.764066 13.17037,5.644445 3.747957,3.723378 5.790635,8.830073 5.644444,14.111111 v 1.881481 c -0.08367,3.526395 -0.718502,7.017992 -1.881481,10.348148 -1.376745,3.121153 -3.674407,5.747053 -6.585185,7.525926 -7.867803,4.63024 -17.85268,3.478139 -24.45926,-2.822222 -3.762963,-3.762963 -4.703703,-8.466666 -4.703703,-15.992592 z m 8.466666,0.94074 c -0.222051,3.373258 0.780001,6.713432 2.822223,9.407408 1.812727,2.325175 4.578149,3.707886 7.525926,3.762963 3.035873,0.366151 5.997322,-1.114574 7.525925,-3.762963 2.039424,-3.051429 3.030077,-6.683825 2.822223,-10.348148 0.0746,-3.649088 -0.905337,-7.242193 -2.822223,-10.348148 -1.77663,-2.368841 -4.564875,-3.762964 -7.525925,-3.762964 -2.961051,0 -5.749296,1.394123 -7.525926,3.762964 -2.03538,3.401497 -3.017441,7.329741 -2.822223,11.288888 z"
             id="path8" />
          <polygon
             id="polygon10"
             points="145.81482,17.874074 134.52593,59.266667 127,59.266667 118.53333,31.044444 110.06667,59.266667 102.54074,59.266667 91.251852,17.874074 100.65926,17.874074 107.24444,46.096296 115.71111,17.874074 122.2963,17.874074 129.82222,46.096296 136.40741,17.874074 " />
          <path
             d="m 159.92593,17.874074 v 4.703704 c 2.97193,-3.68739 7.49548,-5.775185 12.22963,-5.644445 8.46666,0 13.17037,4.703704 13.17037,15.051852 v 27.281482 h -9.40741 V 32.925926 c 0.12665,-2.054034 -0.54774,-4.077208 -1.88148,-5.644444 -1.56724,-1.333741 -3.59041,-2.008133 -5.64445,-1.881482 -3.45,-0.01828 -6.65954,1.764801 -8.46666,4.703704 v 29.162963 h -9.40741 V 17.874074 Z"
             id="path12" />
          <polygon
             id="polygon14"
             points="194.73333,0 204.14074,0 204.14074,58.325926 194.73333,58.325926 " />
          <path
             d="m 212.60741,37.62963 c 0.0837,-3.526395 0.7185,-7.017992 1.88148,-10.348148 1.67373,-2.920892 3.91232,-5.479276 6.58518,-7.525926 3.10596,-1.916886 6.69906,-2.896823 10.34815,-2.822223 5.04037,-0.334164 9.93624,1.764066 13.17037,5.644445 3.74796,3.723378 5.79064,8.830073 5.64445,14.111111 v 1.881481 c -0.0837,3.526395 -0.71851,7.017992 -1.88148,10.348148 -1.37675,3.121153 -3.67441,5.747053 -6.58519,7.525926 -7.8678,4.63024 -17.85268,3.478139 -24.45926,-2.822222 -3.76296,-3.762963 -4.7037,-8.466666 -4.7037,-15.992592 z m 9.4074,0.94074 c -0.22205,3.373258 0.78001,6.713432 2.82223,9.407408 1.81272,2.325175 4.57815,3.707886 7.52592,3.762963 2.99471,0.151088 5.84998,-1.276545 7.52593,-3.762963 2.03942,-3.051429 3.03008,-6.683825 2.82222,-10.348148 0.0746,-3.649088 -0.90534,-7.242193 -2.82222,-10.348148 -1.77663,-2.368841 -4.56488,-3.762964 -7.52593,-3.762964 -2.96105,0 -5.74929,1.394123 -7.52592,3.762964 -2.03538,3.401497 -3.01744,7.329741 -2.82223,11.288888 z"
             id="path16" />
          <path
             d="m 283.16296,58.325926 c 0,-0.940741 -0.94074,-1.881482 -0.94074,-3.762963 -2.70555,2.8552 -6.41797,4.542663 -10.34815,4.703704 -3.81598,0.194416 -7.54837,-1.162816 -10.34814,-3.762963 -2.38693,-2.169081 -3.75241,-5.241422 -3.76297,-8.466667 -0.0348,-3.97423 1.68657,-7.761137 4.70371,-10.348148 4.03985,-3.032447 9.09773,-4.381216 14.11111,-3.762963 h 5.64444 v -2.822222 c -0.0355,-1.744292 -0.70421,-3.416128 -1.88148,-4.703704 -1.56724,-1.333741 -3.59041,-2.008132 -5.64444,-1.881482 -1.9989,0.195337 -3.92813,0.838413 -5.64445,1.881482 -1.16259,0.906364 -1.85394,2.289074 -1.88148,3.762963 h -9.40741 c 0.1858,-2.297834 0.82528,-4.536039 1.88148,-6.585185 1.78098,-2.078899 4.04105,-3.693232 6.58519,-4.703704 2.70478,-1.071556 5.56262,-1.70663 8.46667,-1.881481 4.12089,-0.356302 8.20595,1.005384 11.28888,3.762963 3.01714,2.587011 4.73846,6.373917 4.70371,10.348148 v 18.814814 c -0.0418,2.930343 0.60252,5.829829 1.88148,8.466667 v 0.940741 z m -10.34815,-6.585185 c 1.88149,0 3.76297,-0.940741 5.64445,-0.940741 1.88148,0 2.82222,-1.881482 3.76296,-3.762963 v -7.525926 h -4.7037 c -2.63251,-0.0639 -5.2332,0.586269 -7.52593,1.881482 -1.76284,0.89918 -2.8584,2.725109 -2.82222,4.703703 0.0275,1.473889 0.71889,2.8566 1.88148,3.762963 0,1.881482 1.88148,1.881482 3.76296,1.881482 z"
             id="path18" />
          <path
             d="m 299.15556,37.62963 c -0.17723,-5.40455 1.48068,-10.70988 4.7037,-15.051852 2.50084,-3.37942 6.39396,-5.448873 10.59412,-5.631489 4.20016,-0.182616 8.2582,1.541135 11.04292,4.690748 V 0 h 9.4074 v 58.325926 h -8.46666 l -0.94074,-4.703704 c -2.70618,3.401606 -6.96802,5.177369 -11.28889,4.703704 -4.46852,0.117581 -8.70185,-1.999083 -11.28889,-5.644445 -3.02055,-4.402877 -4.35621,-9.745524 -3.76296,-15.051851 z m 8.46666,0.94074 c -0.22205,3.373258 0.78,6.713432 2.82222,9.407408 1.57911,2.112285 3.96367,3.474893 6.58519,3.763102 3.45,0.01814 6.65955,-1.76494 8.46667,-4.703843 V 29.162963 c -1.50243,-3.239124 -4.92274,-5.139298 -8.46667,-4.703704 -2.78891,-0.356095 -5.47607,1.179424 -6.58519,3.762963 -1.61623,3.228643 -2.57551,6.745996 -2.82222,10.348148 z"
             id="path20" />
        </g>
        <g
           transform="translate(0,102.54074)"
           id="g44">
          <path
             d="M 65.851852,80.903704 H 26.340741 L 17.874074,104.42222 H 0 L 37.62963,4.7037037 H 53.622222 L 91.251852,104.42222 H 73.377778 Z M 31.985185,66.792593 H 61.148148 L 47.037037,25.4 Z"
             id="path24" />
          <path
             d="m 113.82963,30.103704 v 8.466666 c 5.17616,-6.669415 13.19612,-10.50505 21.63704,-10.348148 15.99259,0 23.51851,8.466667 23.51851,26.340741 V 103.48148 H 142.05185 V 55.503704 c 0.35437,-3.678274 -0.64949,-7.359083 -2.82222,-10.348148 -2.85032,-2.516273 -6.54731,-3.860632 -10.34815,-3.762963 -6.44642,-0.153895 -12.36535,3.545438 -15.05185,9.407407 v 52.68148 H 96.896296 V 30.103704 Z"
             id="path26" />
          <path
             d="m 173.0963,66.792593 c -0.36033,-9.651821 2.268,-19.179523 7.52592,-27.281482 5.17616,-6.669415 13.19612,-10.505051 21.63704,-10.348148 7.23595,-0.20146 14.1667,2.917377 18.81481,8.466667 V 0 h 16.93334 v 105.36296 h -15.05185 l -0.94075,-7.525923 c -5.00681,6.116723 -12.55304,9.584873 -20.45549,9.401093 -7.90245,-0.18378 -15.2793,-3.99898 -19.99636,-10.341834 -5.86761,-8.917469 -8.82566,-19.435 -8.46666,-30.103703 z m 16.93333,1.881481 c -0.14127,6.281466 1.48882,12.475804 4.7037,17.874074 2.58089,4.250244 7.26059,6.770085 12.22963,6.585185 6.51117,0.39929 12.55756,-3.3797 15.05185,-9.407407 V 51.740741 c -2.6091,-5.929468 -8.57868,-9.660455 -15.05185,-9.407408 -5.01874,-0.410054 -9.80936,2.169509 -12.22963,6.585185 -3.43967,5.994011 -5.07314,12.854613 -4.7037,19.755556 z"
             id="path28" />
          <path
             d="m 294.45185,45.155556 c -1.88148,0 -4.7037,-0.940741 -6.58518,-0.940741 -7.52593,0 -13.17037,2.822222 -15.05186,8.466666 V 103.48148 H 255.88148 V 30.103704 h 15.99259 v 8.466666 c 3.31658,-6.179881 9.93412,-9.85629 16.93334,-9.407407 1.88148,0 4.7037,0 5.64444,0.940741 z"
             id="path30" />
          <path
             d="m 300.0963,66.792593 c -0.004,-6.86299 1.6078,-13.630523 4.7037,-19.755556 2.50275,-5.625165 6.80501,-10.258373 12.22963,-13.17037 5.49374,-2.980778 11.62473,-4.594196 17.87407,-4.703704 9.12401,-0.511161 18.02934,2.913964 24.45926,9.407407 6.41694,6.930675 10.09483,15.958221 10.34815,25.4 v 3.762963 c -0.16177,6.747057 -1.43309,13.421471 -3.76296,19.755556 -2.50275,5.625165 -6.80501,10.258372 -12.22963,13.170371 -5.49375,2.98078 -11.62473,4.5942 -17.87408,4.7037 -9.52766,0.18063 -18.71115,-3.56079 -25.4,-10.348145 -7.14148,-7.610147 -10.87755,-17.799418 -10.34814,-28.222222 z m 15.99259,0.94074 c -0.27572,6.296602 1.36433,12.528814 4.7037,17.874074 3.10911,4.145471 7.98853,6.585186 13.17037,6.585186 5.18184,0 10.06127,-2.439715 13.17037,-6.585186 3.32967,-5.694874 4.96171,-12.223021 4.70371,-18.814814 0.14126,-6.281466 -1.48883,-12.475804 -4.70371,-17.874075 -2.82542,-4.471813 -7.89766,-7.007935 -13.17037,-6.585185 -5.22888,-0.208561 -10.19989,2.276947 -13.17037,6.585185 -3.45475,5.643152 -5.09641,12.209797 -4.7037,18.814815 z"
             id="path32" />
          <path
             d="m 382.88148,11.288889 c 0.12636,-5.1423206 4.26509,-9.2810525 9.40741,-9.4074075 2.53679,-0.2704286 5.0315,0.7987348 6.58518,2.8222222 1.80263,1.7161657 2.82293,4.0962716 2.82293,6.5851853 0,2.488914 -1.0203,4.869019 -2.82293,6.585185 -1.67541,1.86031 -4.0826,2.891963 -6.58518,2.822222 -2.53679,0.270429 -5.0315,-0.798735 -6.58519,-2.822222 -1.33099,-2.006459 -2.28719,-4.237599 -2.82222,-6.585185 z m 17.87408,93.133331 H 383.82222 V 30.103704 h 16.93334 z"
             id="path34" />
          <path
             d="m 415.80741,66.792593 c -0.36033,-9.651821 2.268,-19.179523 7.52592,-27.281482 5.17616,-6.669415 13.19612,-10.505051 21.63704,-10.348148 7.23595,-0.20146 14.1667,2.917377 18.81482,8.466667 V 0 h 16.93333 v 105.36296 h -15.05185 l -0.94074,-7.525923 c -5.00682,6.116723 -12.55305,9.584873 -20.4555,9.401093 -7.90245,-0.18378 -15.2793,-3.99898 -19.99636,-10.341834 -5.70527,-8.990734 -8.64893,-19.457098 -8.46666,-30.103703 z m 16.93333,1.881481 c -0.14126,6.281466 1.48882,12.475804 4.7037,17.874074 2.58089,4.250244 7.26059,6.770085 12.22963,6.585185 6.51117,0.39929 12.55756,-3.3797 15.05186,-9.407407 V 51.740741 c -2.6091,-5.929468 -8.57868,-9.660455 -15.05186,-9.407408 -5.01874,-0.410054 -9.80936,2.169509 -12.22963,6.585185 -3.76296,4.703704 -4.7037,10.348149 -4.7037,19.755556 z"
             id="path36" />
          <path
             d="m 590.78518,80.903704 h -38.57036 l -8.46667,23.518516 H 525.87407 L 563.5037,4.7037037 h 15.9926 L 617.12593,104.42222 H 599.25185 Z M 556.91852,66.792593 h 29.16296 L 571.97037,25.4 Z"
             id="path38" />
          <path
             d="M 646.28889,67.733333 V 104.42222 H 628.41481 V 4.7037037 h 38.57037 c 9.52558,-0.5356341 18.91124,2.4811832 26.34075,8.4666663 6.89788,5.819558 10.71782,14.501233 10.34814,23.518519 0.69954,8.604354 -2.80523,17.0158 -9.4074,22.577778 -7.92677,5.722645 -17.50755,8.69599 -27.28149,8.466666 z m 0,-14.111111 h 20.69629 c 6.58519,0 11.28889,-0.940741 14.11112,-4.703704 3.05944,-3.33416 4.7404,-7.704644 4.7037,-12.229629 0.0337,-4.807349 -1.63224,-9.472011 -4.7037,-13.170371 -3.61152,-3.220758 -8.33565,-4.907947 -13.17037,-4.703703 h -21.63704 z"
             id="path40" />
          <polygon
             id="polygon42"
             points="735.65926,104.42222 718.72593,104.42222 718.72593,4.7037037 735.65926,4.7037037 735.65926,51.740741 745.06667,39.511111 774.22963,4.7037037 794.92593,4.7037037 758.23704,48.918518 797.74815,104.42222 777.05185,104.42222 746.94815,61.148148 735.65926,73.377778 " />
        </g>
      </g>
      <g
         id="g49"
         transform="translate(98.777778,67.277074)"
         fill="#ffffff">
        <path
           d="m 31.044444,155.67378 c 0.05236,4.00782 -1.516632,7.86682 -4.350832,10.70102 -2.8342,2.8342 -6.693197,4.40319 -10.701019,4.35083 C 7.4509519,170.9041 0.33905561,164.21055 0,155.67378 V 92.644148 c 0.33905561,-8.536774 7.4509519,-15.230324 15.992593,-15.051852 4.007822,-0.05236 7.866819,1.516632 10.701019,4.350833 2.8342,2.8342 4.403196,6.693197 4.350832,10.701019 z M 36.688889,75.710815 C 37.042047,52.638856 50.566547,31.803817 71.496296,22.088593 L 61.148148,3.2737778 C 59.266667,0.45155556 63.02963,-1.4299259 64.911111,1.3922963 L 75.259259,20.207111 c 18.619547,-7.997409 39.706381,-7.997409 58.325921,0 L 143.93333,1.3922963 c 0.58624,-0.90465007 1.75872,-1.22420057 2.72291,-0.74210746 0.96418,0.48209316 1.41203,1.61180706 1.04006,2.62358896 L 137.34815,22.088593 c 20.70733,9.822325 33.8954,30.703438 33.86671,53.622222 z m 0,5.644444 H 170.27407 v 96.896301 c -0.24602,8.72852 -7.26406,15.74657 -15.99259,15.99259 h -11.28889 v 32.92592 c 0,19.75556 -30.1037,19.75556 -30.1037,0 V 194.24415 H 93.133333 v 32.92592 c 0,19.75556 -30.103703,19.75556 -30.103703,0 V 194.24415 H 52.681481 c -8.72853,-0.24602 -15.746573,-7.26407 -15.992592,-15.99259 z M 73.377778,39.962667 c -3.028436,0.204848 -5.439596,2.616009 -5.644445,5.644444 0,3.117341 2.527104,5.644445 5.644445,5.644445 3.11734,0 5.644444,-2.527104 5.644444,-5.644445 -0.204848,-3.028435 -2.616009,-5.439596 -5.644444,-5.644444 z m 61.148152,0 c -3.02844,0.204848 -5.4396,2.616009 -5.64445,5.644444 0,3.117341 2.5271,5.644445 5.64445,5.644445 3.11734,0 5.64444,-2.527104 5.64444,-5.644445 -0.20485,-3.028435 -2.61601,-5.439596 -5.64444,-5.644444 z m 72.43703,53.622222 v 63.029631 c -0.33905,8.53677 -7.45095,15.23032 -15.99259,15.05185 -4.00782,0.0524 -7.86682,-1.51663 -10.70102,-4.35083 -2.8342,-2.8342 -4.4032,-6.6932 -4.35083,-10.70102 V 93.584889 c -0.0524,-4.007823 1.51663,-7.866819 4.35083,-10.70102 2.8342,-2.8342 6.6932,-4.403195 10.70102,-4.350832 8.54164,-0.178472 15.65354,6.515077 15.99259,15.051852 z"
           id="path47" />
      </g>
    </g>
  </g>
</svg>
